# xmcd
#
# Track frame offsets:
#	150
#	44184
#	65942
#	91601
#	129184
#	179066
#	215450
#	269533
# Disc length: 3993 seconds
# Revision: 1
# Processed by: cddbd v1.5.1PL2 Copyright (c) Steve Scherf et al.
#
# Submitted via: libkcddb 0.21
#
DISCID=7d0f9708
DTITLE=Impromptus op. 90 e 142 - F. Schubert
DYEAR=1900
DGENRE=
TTITLE0=Impromptus op. 90, D899 - n. 1 em Dó menor
TTITLE1=Impromptus op. 90, D899 - n. 2 em Mi maior
TTITLE2=impromptus op. 90, D899 - n. 3 em Sol maior
TTITLE3=impromptus op. 90, D899 - n. 4 em Lá maior
TTITLE4=Impromptus op. 142, D935 - n.1 em Fá menor
TTITLE5=Impromptus op. 142, D935 - n. 2 Lá maior
TTITLE6=Impromptus op. 142, D935 - n. 3 em Si maior
TTITLE7=Impromptus op. 142, D935 - n. 4 em Fá menor
EXTD=
EXTT0=
EXTT1=
EXTT2=
EXTT3=
EXTT4=
EXTT5=
EXTT6=
EXTT7=
PLAYORDER=
